<?xml version="1.0" standalone="no"?>
<!DOCTYPE svg PUBLIC "-//W3C//DTD SVG 20010904//EN"
 "http://www.w3.org/TR/2001/REC-SVG-20010904/DTD/svg10.dtd">
<svg version="1.0" xmlns="http://www.w3.org/2000/svg"
 width="512.000000pt" height="512.000000pt" viewBox="0 0 512.000000 512.000000"
 preserveAspectRatio="xMidYMid meet">
<metadata>
Created by potrace 1.14, written by Peter Selinger 2001-2017
</metadata>
<g transform="translate(0.000000,512.000000) scale(0.100000,-0.100000)"
fill="#000000" stroke="none">
<path d="M3549 4738 c-1 -7 -1 -16 0 -20 2 -14 -11 -9 -26 10 -8 9 -11 11 -7
3 5 -11 3 -13 -9 -8 -9 3 -19 1 -23 -5 -5 -7 -2 -8 6 -3 9 5 11 4 6 -4 -6 -9
-11 -9 -22 0 -13 11 -18 6 -15 -14 1 -5 -3 -6 -8 -2 -6 3 -9 11 -7 18 1 7 1 9
-1 4 -3 -4 -9 -5 -14 -2 -5 4 -6 0 -4 -7 4 -9 -2 -14 -15 -15 -11 -1 -20 2
-20 7 0 4 -7 10 -15 14 -13 4 -14 2 -5 -14 9 -16 8 -18 -5 -14 -8 4 -15 11
-15 16 0 7 -5 6 -13 -1 -8 -6 -18 -7 -22 -3 -5 4 -5 2 -2 -4 4 -7 0 -17 -8
-24 -13 -11 -14 -10 -8 6 6 17 5 17 -10 5 -9 -7 -14 -18 -10 -24 3 -6 1 -7 -6
-3 -6 4 -9 11 -6 16 3 5 -8 4 -25 -1 -17 -6 -28 -16 -24 -22 3 -7 -2 -3 -10 7
-14 17 -16 17 -16 3 0 -9 -10 -21 -21 -28 -13 -7 -19 -7 -15 -1 3 6 1 14 -5
18 -8 5 -9 3 -4 -6 6 -10 4 -12 -10 -6 -14 5 -16 4 -7 -7 9 -10 8 -14 -3 -14
-8 0 -15 4 -15 9 0 4 -4 8 -10 8 -5 0 -6 -8 -3 -17 6 -15 4 -16 -9 -6 -15 13
-28 8 -28 -11 0 -6 5 -4 10 4 5 8 10 10 10 4 0 -13 -30 -41 -30 -28 0 5 -7 0
-15 -10 -8 -11 -15 -15 -15 -9 0 15 25 34 35 25 5 -4 5 -1 1 6 -6 11 -11 11
-24 0 -23 -17 -32 -31 -26 -39 2 -4 -4 -6 -14 -5 -9 0 -16 -5 -14 -12 2 -10
-2 -10 -19 -1 -18 9 -21 9 -16 -3 3 -8 -1 -15 -8 -15 -7 0 -27 -6 -44 -13 -23
-9 -30 -18 -26 -29 3 -9 -4 -5 -15 9 -11 14 -18 18 -15 9 3 -9 -1 -22 -10 -29
-10 -8 -15 -9 -15 -1 0 6 5 11 11 11 5 0 7 5 3 11 -4 8 -9 7 -15 -2 -5 -8 -9
-10 -9 -4 0 13 -25 -14 -25 -28 -1 -7 -6 -11 -13 -9 -7 1 -12 -2 -12 -8 0 -5
5 -10 12 -10 6 0 8 -3 5 -6 -4 -4 -14 -1 -24 7 -9 8 -14 9 -10 3 4 -7 0 -15
-9 -18 -25 -10 -36 -7 -29 7 4 6 -1 3 -9 -7 -10 -13 -16 -15 -16 -7 0 10 -3
11 -14 2 -10 -9 -16 -9 -21 -1 -5 8 -11 6 -19 -6 -10 -13 -15 -14 -21 -4 -6 9
-4 11 5 5 9 -5 11 -4 6 4 -6 9 -11 9 -22 0 -8 -6 -14 -8 -14 -3 0 5 -7 1 -14
-9 -12 -16 -14 -16 -20 -2 -4 11 -2 14 6 9 7 -5 8 -3 3 6 -6 10 -10 10 -20 -3
-9 -13 -14 -14 -25 -4 -10 10 -12 9 -7 -5 4 -12 2 -15 -9 -11 -7 3 -14 13 -15
22 -1 9 -4 6 -9 -9 -4 -14 -8 -19 -9 -12 -1 6 -6 12 -12 12 -5 0 -7 -4 -4 -10
3 -5 2 -10 -4 -10 -5 0 -12 6 -14 13 -4 10 -6 10 -6 0 -1 -16 -31 -17 -31 -2
0 6 -9 1 -21 -12 -11 -13 -17 -17 -13 -9 7 13 5 13 -8 2 -13 -10 -17 -10 -21
0 -4 8 -6 7 -6 -4 -1 -10 -6 -18 -12 -18 -5 0 -7 5 -4 10 10 17 -7 11 -22 -7
-14 -17 -14 -17 -9 -1 4 15 3 16 -14 6 -14 -9 -16 -15 -7 -21 7 -5 3 -6 -10
-2 -12 3 -33 1 -45 -6 -20 -10 -22 -10 -13 2 6 8 3 7 -6 -3 -9 -9 -19 -14 -23
-11 -3 3 -12 0 -21 -7 -8 -7 -15 -9 -15 -5 0 5 -9 0 -20 -10 -11 -10 -20 -13
-20 -7 0 7 5 12 11 12 5 0 7 5 4 10 -4 6 -14 1 -25 -12 -15 -19 -20 -20 -34
-9 -14 12 -16 12 -10 -4 5 -13 4 -16 -4 -11 -7 4 -12 2 -12 -5 0 -8 -5 -8 -17
2 -10 7 -15 9 -11 5 8 -9 -19 -35 -37 -36 -5 0 -3 5 5 10 8 5 11 10 7 10 -4 0
-19 -7 -32 -16 -13 -9 -29 -13 -35 -9 -6 3 -10 -3 -10 -16 0 -18 -2 -19 -15
-9 -14 12 -20 7 -16 -14 1 -5 -4 -4 -13 3 -11 9 -16 9 -22 0 -5 -8 -3 -9 6 -4
9 5 11 4 6 -4 -4 -7 -13 -10 -19 -8 -7 2 -17 -3 -23 -11 -6 -8 -22 -14 -36
-14 -17 0 -25 -5 -22 -13 3 -7 0 -16 -7 -21 -8 -4 -10 -3 -5 4 13 21 -7 13
-37 -15 -17 -16 -27 -23 -24 -17 4 7 0 14 -8 17 -9 4 -12 1 -8 -9 4 -10 0 -12
-12 -7 -12 4 -23 0 -31 -12 -8 -11 -14 -13 -14 -6 0 7 -5 9 -12 5 -7 -4 -8 -3
-4 5 4 6 13 8 19 4 7 -4 6 0 -2 10 -14 18 -26 24 -17 8 3 -5 -3 -11 -14 -14
-11 -3 -23 0 -27 5 -3 7 -1 8 5 4 7 -4 12 -3 12 3 0 5 -9 9 -20 8 -23 -1 -25
-7 -7 -27 6 -8 -1 -4 -17 10 -16 14 -26 19 -22 13 4 -7 2 -13 -3 -13 -6 0 -11
5 -11 10 0 7 -6 7 -20 0 -16 -9 -20 -8 -20 7 0 15 -1 15 -13 -2 -11 -14 -16
-15 -22 -5 -6 9 -4 11 6 5 12 -8 12 -6 0 8 -7 9 -17 14 -22 11 -14 -8 -11 -16
4 -8 6 4 9 3 4 -1 -4 -5 -18 -9 -31 -10 -20 0 -22 2 -14 13 9 10 8 12 -3 10
-8 -2 -20 -12 -27 -23 -7 -11 -11 -13 -9 -5 2 8 -2 21 -9 28 -8 7 -14 8 -14 3
0 -5 -9 -8 -21 -6 -16 3 -18 1 -10 -9 11 -13 5 -26 -11 -26 -5 0 -7 4 -4 9 3
5 -1 12 -10 15 -8 3 -12 2 -9 -3 3 -5 1 -12 -5 -16 -5 -3 -10 -1 -10 5 0 8 -6
8 -20 0 -11 -6 -17 -16 -14 -22 4 -7 3 -8 -4 -4 -6 4 -8 14 -5 24 6 15 5 15
-10 3 -9 -7 -14 -18 -10 -24 3 -6 1 -7 -6 -3 -6 4 -9 11 -7 15 3 4 -2 8 -10 8
-8 0 -13 -6 -10 -13 5 -12 -18 -13 -30 -1 -12 12 -26 8 -18 -5 4 -6 3 -8 -4
-4 -6 3 -14 2 -17 -4 -5 -8 -11 -7 -21 1 -11 9 -14 8 -14 -2 0 -9 -3 -10 -8
-4 -9 12 -54 16 -46 4 3 -5 9 -7 14 -4 5 3 11 1 15 -4 6 -10 -15 -8 -50 4
l-20 8 20 -17 c11 -10 15 -15 8 -12 -6 4 -14 2 -17 -3 -7 -11 -25 -9 -45 3
-10 7 -12 3 -7 -15 3 -13 3 -18 0 -11 -3 6 -10 12 -15 12 -6 0 -7 -4 -4 -10 3
-5 1 -10 -4 -10 -6 0 -11 5 -11 11 0 8 -5 8 -15 -1 -8 -7 -15 -8 -15 -2 0 5
-12 10 -26 10 -15 0 -21 -4 -15 -8 9 -5 7 -11 -5 -21 -10 -8 -15 -9 -11 -3 4
7 0 15 -9 18 -8 3 -12 2 -9 -4 11 -18 -5 -32 -21 -19 -11 9 -14 9 -14 0 0 -7
-4 -10 -9 -6 -5 3 -13 0 -17 -6 -4 -7 -3 -9 4 -5 6 3 13 2 16 -3 4 -6 -7 -8
-25 -6 -25 4 -30 1 -25 -12 5 -13 4 -14 -9 -3 -18 15 -20 0 -2 -20 10 -12 9
-12 -6 0 -16 12 -22 9 -58 -26 -31 -30 -42 -36 -48 -25 -7 11 -10 9 -16 -8 -4
-12 -11 -19 -18 -15 -7 4 -9 4 -5 -1 4 -4 2 -17 -4 -29 -7 -11 -11 -25 -10
-29 1 -5 -2 -6 -8 -2 -8 5 -7 12 2 23 12 15 11 16 -4 3 -10 -7 -18 -20 -18
-28 0 -12 -3 -13 -14 -4 -12 10 -13 8 -9 -10 4 -15 3 -20 -5 -15 -8 4 -12 0
-12 -11 0 -11 -8 -20 -20 -21 -11 -1 -29 -3 -40 -4 -13 -2 -16 -6 -10 -12 13
-13 13 -29 0 -21 -5 3 -10 1 -10 -4 0 -6 -3 -10 -7 -10 -20 3 -23 -3 -12 -23
11 -21 11 -22 -4 -9 -14 11 -17 11 -18 0 -1 -27 -8 -51 -15 -57 -4 -4 -4 1 -1
11 4 9 2 17 -3 17 -6 0 -10 -9 -10 -19 0 -27 -17 -36 -38 -19 -15 11 -15 11
-5 -2 17 -23 13 -59 -7 -52 -13 5 -13 3 -1 -11 12 -15 11 -17 -5 -17 -16 0
-17 -2 -4 -10 13 -8 13 -10 -1 -10 -29 0 -63 -59 -36 -61 7 0 3 -4 -7 -8 -19
-7 -25 -22 -30 -70 -3 -27 -43 -64 -59 -54 -6 4 -7 1 -1 -8 4 -8 9 -18 11 -24
1 -5 4 -20 7 -33 3 -13 1 -20 -5 -17 -5 4 -7 10 -4 15 3 5 1 11 -4 15 -6 3 -8
-3 -6 -15 6 -30 15 -41 27 -34 7 5 8 2 3 -5 -5 -9 -10 -10 -18 -2 -17 17 -31
13 -17 -4 10 -13 9 -19 -6 -37 -19 -21 -19 -21 6 -8 22 12 24 11 13 -2 -7 -8
-9 -19 -5 -23 4 -5 1 -5 -7 0 -9 5 -12 3 -9 -6 3 -8 14 -13 24 -11 18 2 18 2
1 -8 -9 -6 -21 -9 -25 -6 -5 3 -9 -1 -9 -9 0 -8 6 -15 14 -15 16 0 17 -16 1
-26 -7 -5 -8 -2 -3 7 5 8 4 11 0 6 -12 -10 -16 -97 -5 -97 5 0 7 8 4 18 -5 14
-4 15 5 2 8 -11 7 -18 -5 -27 -10 -7 -11 -13 -5 -18 6 -3 11 -12 11 -18 0 -8
-3 -8 -9 2 -6 8 -8 1 -7 -22 1 -21 5 -33 12 -30 15 6 26 -25 12 -33 -7 -4 -8
-3 -4 4 4 7 3 12 -2 12 -6 0 -12 -7 -16 -15 -3 -8 0 -14 7 -12 7 1 11 -6 9
-17 -2 -10 1 -15 7 -12 5 4 13 1 17 -5 4 -7 3 -9 -4 -5 -6 3 -13 2 -17 -4 -3
-5 0 -10 8 -10 7 0 14 -7 14 -15 0 -11 -4 -12 -13 -4 -9 8 -11 5 -7 -10 3 -12
10 -18 17 -14 6 4 5 -1 -3 -10 -7 -9 -10 -17 -5 -17 5 0 2 -5 -6 -11 -13 -9
-13 -10 2 -6 9 3 22 -1 29 -9 10 -12 9 -13 -6 -8 -14 6 -16 4 -8 -12 5 -10 8
-29 8 -41 -1 -12 2 -20 7 -17 4 3 6 10 3 15 -4 5 -1 17 5 26 9 15 10 14 4 -6
-5 -18 -3 -22 7 -16 11 6 12 5 2 -6 -18 -19 -16 -37 4 -42 16 -4 16 -5 2 -6
-9 0 -20 -8 -23 -17 -5 -14 -4 -15 8 -5 11 9 15 8 21 -6 5 -10 7 -26 6 -37 -2
-13 1 -16 11 -10 10 6 10 4 -1 -9 -11 -14 -11 -20 -1 -32 7 -8 17 -12 23 -8 6
4 7 1 2 -7 -4 -7 -2 -16 6 -21 11 -7 11 -9 1 -9 -7 0 -15 7 -18 15 -4 8 -11
15 -18 15 -6 0 1 -11 16 -24 20 -18 24 -26 15 -36 -9 -10 -9 -11 1 -6 6 4 12
2 12 -4 0 -6 5 -8 12 -4 6 4 8 3 5 -4 -10 -15 3 -43 16 -35 6 3 7 1 3 -6 -4
-6 -11 -9 -16 -6 -5 3 -12 0 -16 -6 -4 -7 -3 -9 4 -5 6 3 17 0 25 -8 8 -8 18
-12 22 -8 4 4 5 -6 1 -23 -7 -28 -6 -28 7 -11 13 17 14 16 16 -23 2 -62 4 -71
13 -65 5 3 5 10 2 16 -4 6 -2 8 4 5 5 -4 8 -16 5 -27 -5 -18 5 -25 30 -21 10
1 9 -7 -3 -29 -8 -16 -7 -18 9 -15 13 2 18 -1 15 -10 -6 -15 43 -71 60 -67 6
1 2 -5 -9 -14 -16 -14 -17 -16 -2 -11 9 4 17 2 17 -4 0 -6 4 -7 10 -4 6 4 7
-1 3 -11 -5 -14 -3 -16 12 -11 15 6 16 5 5 -8 -10 -12 -9 -15 6 -16 11 -1 22
-1 26 0 4 0 5 -6 1 -15 -5 -13 -8 -13 -15 -2 -8 10 -9 10 -6 -2 3 -8 15 -17
29 -21 13 -4 20 -8 14 -8 -5 -1 -2 -6 8 -12 9 -5 22 -7 29 -3 6 4 8 3 4 -4 -3
-6 3 -13 14 -17 23 -7 26 -25 8 -43 -8 -8 -9 -12 -1 -12 6 0 14 6 17 13 5 9 7
9 12 -1 3 -6 10 -9 16 -6 6 4 6 -2 -1 -14 -8 -15 -8 -23 1 -28 7 -4 8 -3 4 4
-4 7 -1 12 8 12 9 0 15 -3 15 -7 -4 -27 1 -35 16 -23 13 11 14 10 8 -5 -5 -14
-3 -17 9 -13 8 4 15 1 15 -8 0 -7 -4 -11 -9 -8 -21 13 -5 -5 23 -25 18 -13 28
-17 24 -10 -7 12 -5 12 6 1 12 -11 12 -14 -1 -22 -9 -6 -10 -10 -3 -10 6 0 18
7 27 15 13 13 16 11 27 -19 9 -24 17 -32 27 -28 11 4 14 1 9 -11 -4 -12 -2
-14 10 -10 13 5 15 2 11 -15 -5 -18 -3 -20 12 -12 16 8 18 6 16 -15 -2 -13 0
-22 5 -20 4 3 9 -5 11 -17 2 -17 9 -22 22 -20 17 3 18 2 7 -12 -9 -11 -10 -16
-2 -16 6 0 11 -7 11 -16 0 -8 5 -12 10 -9 6 3 10 -1 10 -10 0 -10 -5 -13 -12
-9 -7 4 -8 3 -4 -4 4 -6 14 -8 22 -5 14 5 15 3 4 -18 -10 -20 -10 -22 1 -11
18 17 34 15 20 -2 -9 -11 -9 -16 0 -22 8 -5 9 -3 4 6 -5 8 -4 11 3 6 6 -4 9
-13 5 -21 -3 -10 1 -15 12 -15 10 0 13 -5 9 -12 -4 -6 1 -17 11 -25 11 -7 15
-13 10 -13 -4 0 2 -9 15 -20 13 -11 27 -20 32 -20 5 0 4 -9 -2 -20 -8 -16 -8
-18 4 -14 8 3 17 0 21 -5 3 -6 11 -9 16 -6 5 3 6 0 3 -8 -3 -8 6 -26 20 -40
14 -15 26 -30 26 -36 0 -5 9 -13 20 -16 20 -6 26 -20 13 -28 -5 -2 -2 -2 5 -1
7 2 15 -3 18 -11 4 -8 10 -12 15 -9 8 4 13 -15 11 -37 -1 -3 5 -6 13 -6 8 0
12 4 9 9 -3 4 -3 8 1 8 3 0 10 -11 15 -25 5 -14 16 -25 23 -25 8 0 20 -11 27
-25 7 -13 17 -22 22 -19 4 3 8 0 8 -5 0 -6 5 -11 11 -11 5 0 7 5 3 12 -4 7 -3
8 5 4 6 -4 9 -12 5 -17 -3 -5 0 -16 6 -25 10 -12 16 -12 28 -2 9 7 13 8 9 2
-9 -16 21 -54 38 -48 9 4 15 0 15 -10 0 -9 8 -16 21 -16 11 0 17 -4 14 -10 -4
-6 1 -7 11 -3 14 5 16 3 11 -12 -6 -15 -5 -16 8 -5 9 7 15 9 14 4 -1 -5 -1
-16 0 -24 1 -13 2 -13 11 0 7 12 10 12 10 1 0 -7 6 -11 14 -8 8 3 22 -4 33
-16 l18 -22 -22 19 c-13 11 -23 16 -23 11 0 -12 33 -34 52 -35 10 0 17 -3 17
-7 -4 -22 3 -25 16 -7 14 18 14 18 10 -3 -2 -15 1 -20 9 -17 8 3 16 -2 19 -10
4 -9 15 -13 26 -11 14 3 18 -1 14 -11 -3 -8 -2 -14 3 -13 5 1 20 1 34 0 21 -1
22 -3 10 -12 -12 -9 -11 -10 8 -6 16 4 22 0 23 -11 0 -11 2 -12 6 -4 2 6 9 12
14 12 6 0 7 -4 4 -10 -3 -5 -1 -11 4 -11 6 -1 16 -3 21 -4 6 -1 15 -3 21 -4 5
0 8 -5 5 -10 -3 -5 1 -12 10 -15 8 -3 12 -2 9 4 -3 6 -1 10 4 10 6 0 11 -4 11
-10 0 -5 9 -10 20 -10 11 0 20 -5 20 -10 0 -6 8 -10 18 -8 10 2 16 -2 14 -11
-3 -12 0 -12 12 -1 14 11 20 7 18 -11 -1 -4 8 -5 18 -2 11 3 20 0 20 -6 0 -6
5 -11 11 -11 5 0 7 4 4 10 -3 5 -1 10 4 10 6 0 11 -3 11 -7 0 -5 12 -16 25
-26 24 -17 24 -17 18 0 -6 16 -5 16 10 4 9 -7 28 -11 42 -9 19 4 23 2 15 -7
-8 -9 -6 -14 6 -19 10 -4 21 -2 24 4 5 8 9 6 13 -4 4 -9 12 -16 19 -16 9 0 9
3 -2 10 -8 5 -12 12 -8 15 3 3 12 -1 20 -9 8 -8 30 -13 50 -12 31 1 35 -2 32
-19 -3 -20 -3 -20 11 -1 9 12 15 15 15 7 0 -8 8 -11 20 -8 11 3 23 0 27 -5 4
-7 1 -8 -7 -3 -9 5 -11 4 -6 -4 6 -9 11 -9 22 0 11 9 14 8 14 -2 0 -10 3 -10
12 -1 15 15 32 16 23 2 -8 -13 8 -13 22 1 8 8 13 7 18 -2 5 -8 4 -10 -3 -5
-18 11 -14 0 5 -15 11 -10 14 -10 9 -1 -4 7 -2 12 4 12 6 0 8 4 5 10 -3 6 1 7
10 3 13 -5 14 -7 3 -14 -9 -6 -4 -9 15 -9 15 0 27 5 27 12 0 6 7 3 15 -8 8
-10 15 -14 15 -7 0 7 7 10 15 7 8 -4 23 0 32 7 10 8 14 9 10 2 -4 -6 -3 -14 2
-17 5 -4 13 -2 16 4 5 8 11 7 21 -1 11 -9 14 -8 14 2 0 9 3 10 8 4 10 -14 32
-17 32 -5 0 7 6 7 20 0 15 -8 20 -8 20 2 0 8 3 9 8 3 4 -6 14 -10 22 -10 20 2
50 -14 47 -23 -1 -4 8 -20 21 -36 12 -16 22 -24 22 -19 0 5 -9 18 -20 28 -11
10 -18 20 -15 23 3 3 14 -7 26 -22 12 -15 26 -23 32 -19 9 5 9 3 0 -8 -14 -18
3 -45 32 -51 13 -2 19 -10 17 -22 -4 -23 16 -37 43 -30 13 3 16 2 7 -3 -9 -7
-7 -14 8 -31 14 -14 16 -22 8 -22 -8 0 -6 -5 5 -11 9 -5 23 -7 30 -3 6 4 9 4
5 -1 -4 -4 -2 -15 4 -24 10 -13 10 -14 -2 -4 -17 16 -30 17 -30 2 0 -5 5 -7
10 -4 6 3 13 0 16 -8 6 -16 34 -19 34 -3 0 7 3 7 8 -1 5 -8 13 -9 22 -3 9 6
10 10 3 10 -15 0 -10 53 6 58 6 2 11 8 11 13 0 6 -4 8 -8 5 -5 -3 -9 1 -9 9 0
18 9 19 26 2 10 -10 11 -9 6 6 -4 9 -11 17 -17 17 -5 0 -6 5 -3 10 4 6 10 8
15 5 5 -3 12 0 16 6 4 7 3 9 -3 6 -14 -9 -14 46 1 55 7 5 6 8 -4 8 -11 0 -12
2 -3 8 7 5 15 29 17 55 2 26 7 51 11 55 5 4 5 -1 2 -10 -8 -23 2 -23 20 0 8 9
12 12 9 5 -4 -7 1 -10 11 -8 10 2 21 4 25 4 3 1 9 9 11 19 4 16 5 16 6 -1 0
-10 6 -15 11 -12 6 4 7 12 3 18 -4 7 2 5 12 -3 15 -12 17 -12 10 -1 -6 11 -3
13 13 9 12 -4 22 -2 22 4 0 5 5 6 10 3 6 -4 8 -11 4 -16 -3 -6 3 -5 14 2 12 7
18 18 14 24 -3 5 3 3 13 -5 15 -12 17 -12 10 -1 -6 11 -4 13 8 8 10 -4 17 -1
17 6 0 8 4 6 10 -3 8 -13 10 -12 10 3 0 9 5 17 10 17 6 0 10 -4 10 -8 0 -5 7
-9 15 -9 11 0 12 4 4 13 -7 9 -6 12 8 9 10 -1 24 3 32 9 12 9 13 8 6 -4 -8
-13 -6 -13 8 -2 9 8 21 11 27 7 5 -3 13 0 16 9 3 8 14 13 25 11 12 -3 19 2 19
12 0 14 2 14 16 -3 8 -10 13 -13 9 -7 -10 22 4 34 25 23 16 -8 18 -8 14 5 -4
8 -2 15 4 15 6 0 13 -6 15 -12 3 -8 6 -5 6 5 1 10 5 16 10 13 5 -4 12 0 14 6
4 9 6 9 6 -2 1 -10 6 -8 16 7 10 14 23 20 36 18 11 -2 22 2 26 11 3 8 12 13
19 10 8 -3 14 -1 14 5 0 6 4 8 9 4 6 -3 14 3 20 12 5 10 12 17 15 16 15 -7 37
-2 31 6 -3 5 -1 12 5 16 5 3 10 1 10 -5 0 -6 5 -8 10 -5 6 4 7 11 4 17 -4 6
-2 8 4 4 6 -3 17 0 25 8 11 11 17 12 26 3 9 -9 11 -8 5 7 -5 13 -4 17 4 12 7
-4 12 -3 12 3 0 6 7 8 15 5 11 -5 13 -2 9 10 -5 12 -2 15 12 9 14 -5 16 -3 11
10 -6 15 -3 16 13 7 15 -8 20 -8 18 1 -2 7 7 15 20 18 13 3 23 9 23 14 -2 26
1 29 14 11 13 -18 14 -18 8 4 -4 18 -2 21 13 15 14 -5 16 -3 11 12 -6 15 -5
16 8 5 12 -10 15 -10 15 3 0 8 9 17 20 20 11 3 20 13 20 24 0 15 2 16 10 3 8
-13 10 -13 10 2 0 9 5 20 12 24 7 5 9 2 4 -7 -4 -8 -1 -6 8 5 8 10 20 15 26
11 6 -3 10 -3 9 2 -4 22 2 35 15 30 11 -4 13 -1 9 10 -4 11 -2 14 5 9 7 -4 12
-2 12 4 0 6 4 9 9 5 5 -3 13 0 17 6 4 8 3 9 -4 5 -7 -4 -12 -2 -12 5 0 6 8 9
20 6 11 -3 17 -1 14 4 -3 5 2 12 11 15 12 5 13 9 4 20 -9 12 -9 13 3 9 9 -4
18 1 22 10 3 10 12 15 19 12 8 -3 13 2 13 14 -1 10 3 18 8 18 14 -1 28 30 20
44 -4 6 -4 9 1 5 4 -4 15 -2 24 5 14 11 15 10 1 -8 -14 -20 -14 -20 7 -2 12
10 20 27 18 37 -2 12 1 17 9 14 8 -3 16 4 19 16 3 12 10 20 15 16 5 -3 9 1 9
9 0 8 -5 15 -10 15 -6 0 -7 3 -4 6 4 4 14 1 23 -7 16 -13 16 -12 6 8 -11 19
-10 21 7 18 12 -2 18 2 17 13 0 10 5 16 14 14 11 -2 11 1 -3 12 -16 12 -16 14
-2 20 11 4 14 2 9 -7 -5 -8 -2 -8 9 2 9 7 14 17 12 22 -3 4 3 13 14 18 12 7
18 19 17 35 -2 18 1 23 12 18 11 -4 14 -1 9 11 -4 12 -1 17 11 17 15 0 15 2 2
10 -13 8 -13 10 2 10 12 0 16 6 13 20 -2 11 0 18 6 15 5 -4 9 -1 9 5 0 6 5 8
10 5 6 -3 10 -2 10 4 0 5 -6 12 -12 14 -10 4 -10 6 0 6 7 1 10 6 7 11 -3 6 2
10 12 10 15 0 16 2 3 10 -10 6 -11 10 -2 10 6 0 12 7 12 15 0 9 7 18 15 21 11
5 12 10 4 26 -9 16 -8 19 2 13 9 -6 11 -2 6 14 -4 17 -3 20 8 11 16 -13 29 12
13 28 -7 7 -1 15 18 27 16 9 21 14 12 11 -19 -6 -25 9 -8 19 6 4 8 10 5 15 -3
4 2 11 11 14 14 5 14 9 3 23 -12 14 -12 16 0 8 11 -6 13 -4 8 8 -4 10 -1 17 5
17 6 0 8 3 5 7 -4 3 -1 13 6 21 6 9 7 13 1 9 -6 -3 -11 0 -11 8 0 8 4 12 9 9
4 -3 8 0 8 6 0 6 5 8 13 4 9 -6 9 -5 0 7 -10 12 -10 18 0 29 9 10 9 11 0 6
-18 -10 -5 25 15 41 13 11 13 13 1 14 -8 1 -18 1 -23 0 -5 -1 -4 5 4 13 15 19
24 21 14 4 -4 -6 -3 -8 4 -5 12 8 11 25 -2 46 -6 10 -5 12 2 7 8 -5 11 3 8 23
-2 23 1 31 12 31 13 0 12 3 -4 16 -10 8 -13 13 -6 9 6 -3 12 -1 12 5 0 6 5 8
12 4 7 -4 8 -3 4 5 -4 6 -11 9 -16 6 -10 -6 -7 21 3 31 12 12 8 26 -5 18 -9
-6 -9 -3 0 9 8 9 11 25 7 38 -5 15 -4 19 5 14 9 -6 9 -3 1 14 -9 16 -9 21 1
21 8 0 9 3 3 8 -11 8 -15 62 -4 62 3 0 3 18 -1 40 -4 23 -3 40 2 40 5 0 6 6 1
13 -4 6 -8 21 -8 32 0 11 -4 26 -9 34 -6 10 -6 12 2 7 8 -5 12 0 12 13 0 12
-5 21 -12 21 -9 0 -9 3 0 12 17 17 15 26 -5 31 -15 4 -15 5 2 6 15 1 17 3 7
10 -8 5 -14 24 -15 44 -1 22 -5 33 -11 29 -6 -3 -5 1 2 10 10 12 10 18 1 23
-8 6 -7 10 2 16 10 6 11 9 2 9 -7 0 -13 9 -13 21 0 13 -4 18 -12 13 -7 -4 -8
-3 -4 4 13 21 16 53 4 46 -7 -5 -9 -2 -5 9 3 9 -1 18 -10 21 -11 5 -12 10 -4
19 8 10 7 19 -4 34 -8 11 -11 23 -8 27 3 3 1 6 -4 6 -6 0 -10 12 -8 26 2 18
-4 28 -19 34 -20 8 -20 9 -1 10 17 2 16 3 -5 10 -21 7 -22 8 -5 9 17 1 17 3 5
11 -8 5 -11 10 -6 10 5 0 3 7 -4 15 -6 8 -9 18 -6 23 3 6 -6 17 -20 27 -22 14
-23 19 -12 33 9 11 10 14 1 8 -9 -5 -13 0 -13 13 0 12 -4 21 -10 21 -5 0 -10
7 -10 16 0 9 -5 12 -12 8 -10 -6 -10 -5 0 8 10 13 5 23 -30 64 -23 27 -31 40
-18 29 l25 -20 -15 20 c-8 11 -22 26 -30 33 -13 12 -13 13 0 6 8 -4 0 6 -17
23 -33 31 -44 50 -20 37 6 -4 3 2 -8 13 -11 11 -24 18 -30 15 -5 -3 -4 1 3 10
10 13 10 18 1 24 -8 5 -9 3 -4 -6 6 -9 4 -11 -4 -6 -7 5 -10 15 -7 23 5 11 2
13 -11 9 -14 -6 -14 -4 3 15 19 22 19 22 0 15 -19 -6 -19 -6 -3 12 21 23 22
39 2 22 -9 -7 -18 -10 -22 -6 -3 3 -1 6 6 6 7 0 10 4 6 9 -3 6 2 14 11 19 15
8 15 10 0 15 -12 5 -15 3 -10 -6 4 -7 3 -9 -2 -4 -12 12 -12 30 1 39 6 5 5 8
-4 8 -11 0 -11 3 -1 15 10 12 10 15 -1 15 -8 0 -5 6 7 14 18 14 18 15 1 22
-15 5 -16 9 -5 16 9 7 6 8 -10 5 -19 -5 -21 -3 -11 9 6 7 14 12 18 10 4 -3 7
4 7 14 0 10 -4 16 -8 14 -4 -3 -8 0 -8 5 0 6 5 11 12 11 6 0 3 7 -8 15 -14 11
-15 14 -4 15 13 0 13 2 0 9 -8 6 -17 8 -21 5 -4 -2 -11 1 -15 7 -4 8 -3 9 4 5
7 -4 12 -1 12 9 0 10 -5 13 -12 9 -7 -4 -10 -4 -6 1 4 4 3 14 -2 20 -7 9 -7
22 0 40 9 24 9 26 -4 16 -11 -9 -16 -9 -22 0 -4 7 -3 9 3 6 6 -4 13 0 17 8 3
9 0 15 -9 15 -9 0 -12 6 -9 15 4 8 11 12 18 8 6 -4 5 1 -3 10 -15 18 -26 23
-16 7 3 -6 -1 -7 -10 -4 -14 6 -14 8 2 21 10 8 12 11 4 7 -11 -5 -13 -3 -8 9
3 9 1 22 -6 29 -14 16 -20 36 -19 63 1 16 -1 17 -8 5 -9 -13 -10 -13 -11 0 -1
8 -1 18 0 23 0 4 -4 7 -9 7 -6 0 -10 9 -10 20 0 11 -7 20 -16 20 -9 0 -12 5
-8 12 5 8 2 9 -9 5 -9 -3 -19 -2 -22 4 -4 5 -3 9 2 8 4 -1 12 -1 18 0 11 1
-36 36 -49 36 -5 0 -10 12 -12 28 -2 18 1 25 8 21 7 -4 8 -2 4 4 -4 6 -14 8
-23 5 -11 -4 -14 -3 -9 5 4 7 1 12 -9 12 -10 0 -13 5 -9 12 5 8 2 9 -11 4 -16
-6 -16 -4 -4 11 12 15 12 16 -3 10 -11 -4 -17 -2 -15 5 1 6 -4 13 -12 16 -8 3
-11 0 -7 -7 4 -6 2 -11 -3 -11 -15 0 -14 13 2 29 10 11 7 13 -16 9 -15 -3 -30
-1 -34 5 -3 5 -2 7 3 4 6 -3 16 -2 24 4 12 7 10 9 -7 9 -13 0 -23 5 -23 10 0
6 -7 10 -16 10 -9 0 -12 -5 -8 -12 4 -7 3 -8 -5 -4 -9 6 -9 11 0 22 9 11 9 14
0 14 -7 0 -9 6 -6 13 4 6 -1 3 -9 -7 -15 -19 -21 -12 -17 16 0 4 -8 10 -19 13
-12 4 -17 11 -14 18 5 9 4 9 -6 0 -17 -15 -60 4 -60 27 0 26 -23 42 -40 27
-10 -10 -11 -9 -5 2 5 9 3 12 -6 9 -8 -3 -31 3 -51 13 -27 14 -36 24 -32 37 5
14 4 14 -4 2 -6 -8 -9 -17 -6 -21 2 -4 0 -11 -6 -14 -6 -4 -10 -3 -9 2 4 25
-2 34 -21 28 -11 -3 -20 -2 -20 3 0 8 -6 10 -50 14 -11 1 -19 9 -17 17 1 10
-7 15 -25 15 -14 1 -30 5 -34 9 -5 4 -16 -2 -26 -15 -10 -13 -16 -16 -13 -7 3
9 0 21 -8 27 -11 9 -14 8 -14 -3 0 -8 4 -12 9 -9 4 3 5 -3 1 -12 -4 -11 -8
-13 -11 -6 -2 7 -9 9 -15 5 -7 -4 -8 0 -4 13 7 18 6 18 -6 2 -13 -17 -15 -16
-26 5 -6 12 -9 14 -7 5 3 -11 0 -18 -9 -18 -9 0 -12 6 -9 18 4 10 2 13 -3 7
-9 -12 -23 -13 -40 -2 -7 4 -18 -2 -28 -15 l-17 -23 7 24 c5 16 4 21 -4 17 -6
-4 -11 -14 -11 -22 0 -8 -4 -13 -10 -9 -5 3 -7 12 -3 20 3 8 2 15 -1 15 -3 0
-7 -6 -7 -12z m74 -12 c4 -10 1 -13 -8 -9 -8 3 -12 9 -9 14 7 12 11 11 17 -5z
m216 -11 c22 2 23 1 6 -11 -12 -9 -22 -10 -30 -4 -7 5 -14 8 -17 5 -2 -3 -5 2
-5 10 0 9 4 11 11 6 6 -4 22 -7 35 -6z m-478 -42 c13 -16 12 -17 -3 -5 -13 10
-17 10 -21 0 -4 -8 -6 -7 -6 5 -1 9 3 17 8 17 5 0 15 -8 22 -17z m594 -13 c-3
-5 -12 -10 -18 -10 -7 0 -6 4 3 10 19 12 23 12 15 0z m-711 -15 c-4 -8 -8 -15
-10 -15 -2 0 -4 7 -4 15 0 8 4 15 10 15 5 0 7 -7 4 -15z m876 -46 c0 -5 -4 -9
-8 -9 -5 0 -9 7 -9 15 0 8 4 12 9 9 4 -3 8 -9 8 -15z m-547 -284 c-3 -9 -8
-14 -10 -11 -3 3 -2 9 2 15 9 16 15 13 8 -4z m70 -7 c10 3 9 -10 -3 -28 -8
-13 -10 -12 -10 5 0 15 -3 16 -12 7 -7 -7 -17 -12 -22 -12 -6 0 -3 5 7 11 18
10 18 11 0 25 -16 14 -16 14 7 2 14 -7 28 -11 33 -10z m80 -11 c4 3 9 -2 13
-11 3 -9 10 -16 16 -16 5 0 6 5 3 10 -7 12 31 8 42 -5 5 -4 3 -5 -4 -1 -6 3
-14 3 -17 -2 -2 -4 6 -8 19 -8 17 0 22 5 19 19 -2 11 0 16 4 13 4 -4 8 -12 8
-17 1 -5 2 -12 3 -15 0 -4 8 -1 16 6 12 10 14 8 10 -9 -2 -14 1 -18 11 -14 7
3 11 10 8 17 -3 6 2 2 10 -8 12 -15 16 -16 16 -5 0 12 2 12 10 -1 9 -13 10
-13 10 0 1 9 5 6 10 -7 6 -15 15 -20 29 -16 23 6 59 -22 38 -30 -9 -4 -9 -6 0
-6 6 -1 15 4 18 9 3 6 14 10 23 10 13 0 13 -2 -4 -15 -18 -14 -17 -14 10 -5
27 10 28 9 15 -6 -13 -16 -12 -17 9 -12 20 6 21 4 11 -8 -7 -8 -8 -14 -3 -13
23 4 35 -2 28 -13 -5 -8 0 -7 11 2 17 14 18 13 12 -4 -7 -17 -6 -17 10 -5 15
12 16 12 10 -3 -4 -12 -1 -18 9 -18 9 0 12 -5 8 -12 -5 -7 -3 -8 7 -2 20 12
40 14 33 3 -3 -5 -11 -6 -17 -2 -7 4 -6 0 2 -10 15 -18 26 -23 16 -7 -3 6 1
10 10 10 11 0 15 -6 10 -19 -4 -12 0 -21 11 -25 14 -5 15 -4 5 8 -8 10 -9 16
-1 21 6 4 9 1 8 -7 -2 -7 2 -12 9 -11 7 2 10 -4 7 -12 -4 -10 0 -15 11 -15 10
0 13 -4 9 -12 -5 -9 -2 -9 9 1 15 12 17 11 18 -5 1 -11 1 -23 0 -27 -1 -4 8
-3 18 3 17 9 19 7 16 -9 -3 -14 1 -18 11 -14 15 6 19 -7 6 -22 -4 -6 -6 -9 -3
-8 2 1 13 -2 25 -8 20 -10 20 -10 2 5 -23 19 -14 21 14 4 18 -11 18 -14 3 -30
-9 -10 -11 -18 -5 -18 6 0 12 5 14 12 6 16 63 -40 72 -70 6 -18 11 -21 21 -12
12 10 13 6 5 -19 -8 -28 -7 -30 10 -21 15 8 17 6 13 -10 -4 -16 0 -20 18 -20
19 0 21 -2 9 -9 -8 -6 -18 -7 -22 -5 -4 3 -5 -2 -2 -10 4 -10 1 -16 -10 -16
-9 0 -13 6 -10 14 3 8 0 17 -7 22 -8 5 -10 3 -4 -7 4 -8 -2 -4 -14 9 -12 12
-26 22 -31 22 -6 0 -9 6 -7 13 1 6 -4 11 -11 9 -8 -1 -11 1 -8 6 3 5 -6 15
-20 22 -18 10 -21 16 -12 22 9 5 6 8 -9 8 -13 0 -23 5 -23 11 0 5 -4 7 -10 4
-5 -3 -10 1 -10 10 0 9 -4 13 -10 10 -5 -3 -10 1 -10 11 0 14 -2 15 -17 3 -12
-10 -15 -11 -9 -1 10 17 -11 42 -38 42 -17 0 -18 2 -6 10 14 9 7 15 -14 11 -4
-1 -15 6 -23 16 -8 10 -12 12 -8 6 4 -9 1 -11 -9 -7 -9 3 -13 10 -10 15 3 5 0
9 -6 9 -6 0 -8 5 -4 12 5 8 2 9 -9 5 -11 -4 -22 1 -29 13 -7 11 -16 20 -21 20
-4 0 -6 -4 -2 -9 3 -5 1 -13 -5 -16 -6 -4 -10 -3 -9 2 1 4 1 17 0 28 -1 17 -3
18 -11 5 -8 -13 -10 -13 -10 2 0 10 -10 20 -25 24 -15 4 -22 11 -18 18 4 7 1
6 -9 -2 -13 -10 -18 -9 -29 5 -12 15 -12 16 1 8 13 -7 13 -6 1 6 -10 11 -15
11 -18 1 -3 -6 -9 -10 -13 -7 -5 3 -6 13 -3 21 5 14 3 15 -17 4 -15 -8 -20 -8
-16 -1 4 7 -1 11 -13 11 -13 0 -21 7 -21 16 0 14 -3 14 -16 4 -8 -8 -14 -9
-13 -4 4 21 -2 26 -16 14 -18 -15 -20 1 -3 18 10 10 7 12 -12 10 -14 -2 -29
-7 -33 -13 -5 -6 -7 0 -4 12 4 19 2 21 -13 13 -13 -7 -21 -7 -25 0 -4 6 -10 8
-15 5 -5 -3 -11 -1 -15 5 -4 6 -11 7 -17 4 -7 -4 -8 -2 -4 4 7 12 -1 15 -36
15 -10 0 -15 4 -12 8 3 5 -2 9 -10 9 -9 0 -16 4 -16 8 0 14 44 30 56 21 6 -5
14 -6 17 -2z m-2453 -188 c0 -15 -18 -19 -23 -6 -3 8 1 14 9 14 8 0 14 -4 14
-8z m-503 -111 c-3 -8 -6 -5 -6 6 -1 11 2 17 5 13 3 -3 4 -12 1 -19z m3528
-78 c3 -6 -1 -7 -9 -4 -18 7 -21 14 -7 14 6 0 13 -4 16 -10z m375 -141 c0 -5
-4 -9 -8 -9 -5 0 -9 7 -9 15 0 8 4 12 9 9 4 -3 8 -9 8 -15z m-3524 -45 c-5
-12 -2 -15 11 -10 17 6 17 5 1 -7 -10 -8 -14 -18 -10 -22 4 -5 1 -5 -6 -1 -7
4 -9 12 -6 18 4 6 0 6 -13 -1 -11 -6 -23 -8 -25 -5 -3 2 -4 -7 -3 -21 2 -15
-3 -29 -13 -35 -10 -5 -12 -10 -5 -10 13 0 26 17 29 38 3 18 12 27 20 19 4 -4
-2 -19 -12 -34 -10 -15 -17 -32 -16 -36 1 -5 -2 -6 -8 -2 -5 3 -10 1 -10 -4 0
-6 -5 -11 -11 -11 -5 0 -7 5 -3 12 4 7 3 8 -5 4 -6 -4 -9 -12 -6 -17 4 -5 2
-9 -3 -9 -6 0 -13 -12 -16 -26 -5 -18 -11 -24 -23 -20 -13 6 -14 4 -3 -9 11
-13 11 -16 -1 -13 -8 2 -13 -3 -12 -9 3 -11 -8 -17 -28 -15 -3 1 -6 -5 -6 -13
0 -7 7 -11 16 -8 9 2 4 -3 -11 -12 -31 -17 -37 -28 -11 -18 12 5 11 1 -5 -15
-24 -24 -38 -29 -26 -10 4 7 3 8 -5 4 -9 -6 -9 -11 1 -24 11 -13 11 -14 -1 -7
-11 6 -13 4 -7 -10 5 -15 4 -16 -9 -5 -13 11 -14 10 -9 -4 3 -9 1 -16 -6 -16
-6 0 -8 -5 -5 -10 3 -6 -4 -14 -17 -19 -21 -9 -21 -10 -3 -11 15 0 17 -2 6 -9
-7 -5 -11 -14 -7 -20 4 -7 1 -9 -7 -5 -10 3 -21 -6 -31 -27 -18 -35 -21 -53
-6 -29 7 11 10 12 10 2 0 -8 -9 -16 -20 -19 -19 -5 -20 -6 -3 -19 17 -13 17
-14 -1 -7 -16 5 -18 3 -13 -11 5 -11 3 -15 -5 -10 -7 5 -9 0 -6 -14 4 -13 2
-19 -6 -16 -8 3 -11 -6 -10 -26 1 -16 -2 -27 -7 -24 -5 3 -6 10 -3 16 4 7 2 8
-4 4 -6 -4 -9 -13 -5 -21 3 -9 -1 -15 -8 -15 -12 0 -12 -2 -1 -9 11 -7 11 -9
-2 -14 -9 -4 -16 -12 -16 -19 0 -9 3 -8 10 2 7 10 10 11 10 2 0 -7 -7 -15 -15
-18 -11 -4 -12 -11 -5 -24 7 -13 5 -21 -5 -30 -9 -7 -13 -15 -10 -18 3 -3 -5
-17 -17 -30 -13 -14 -18 -22 -12 -19 8 5 11 -2 10 -17 -1 -18 -4 -22 -13 -14
-9 7 -10 2 -3 -22 8 -29 8 -30 -7 -18 -14 10 -15 10 -9 0 5 -8 1 -22 -10 -35
-10 -12 -12 -16 -4 -9 8 6 17 12 21 12 11 0 -15 -50 -26 -50 -5 0 -3 -5 5 -10
12 -8 12 -10 1 -10 -11 0 -11 -3 -1 -15 9 -11 9 -15 1 -15 -13 0 -11 -37 4
-60 8 -13 7 -13 -8 -1 -10 8 -20 12 -22 9 -3 -3 1 -11 10 -18 14 -12 14 -15
-2 -33 -13 -15 -15 -21 -5 -24 6 -3 12 -9 12 -14 0 -6 -3 -8 -7 -6 -5 3 -9 -8
-10 -24 -1 -17 3 -29 10 -29 8 0 9 -3 1 -8 -13 -9 -14 -243 0 -235 5 4 6 1 0
-8 -12 -20 -17 -69 -5 -50 6 9 8 -3 5 -38 -2 -29 1 -49 6 -46 5 3 12 1 15 -5
4 -6 3 -10 -2 -9 -4 1 -16 -1 -26 -6 -10 -4 -21 -5 -24 -1 -4 3 1 6 10 6 11 0
14 5 10 16 -5 13 -8 13 -15 2 -8 -10 -9 -9 -5 4 3 9 3 19 -1 23 -4 3 -7 12 -8
18 0 7 -2 20 -2 30 -1 9 -10 17 -19 17 -15 0 -16 2 -3 10 13 8 13 10 -1 10 -9
0 -23 8 -30 18 -12 15 -12 16 2 5 13 -11 15 -10 14 7 -1 11 -4 23 -8 26 -4 4
-2 13 4 20 7 8 6 14 -2 20 -7 4 -9 3 -5 -4 9 -15 -7 -23 -24 -11 -13 7 -13 9
-1 9 11 0 10 5 -4 20 -18 20 -18 21 0 14 13 -5 16 -4 11 4 -4 7 -17 12 -29 13
-20 1 -20 2 3 9 16 5 19 8 8 9 -11 1 -15 6 -12 16 4 10 0 15 -12 16 -17 1 -17
2 -1 6 9 2 17 9 17 14 0 6 -4 8 -9 4 -6 -3 -15 5 -22 17 -11 21 -11 22 5 9 14
-12 16 -12 10 4 -5 13 -4 16 4 11 8 -5 10 -2 5 9 -5 13 -7 14 -14 3 -7 -10 -9
-9 -9 4 0 10 -6 16 -12 14 -7 -1 -9 -1 -5 2 4 2 2 11 -5 20 -10 14 -10 15 2 5
8 -7 19 -13 24 -13 6 1 0 10 -13 20 -21 18 -21 20 -5 21 17 1 17 2 2 6 -10 2
-18 9 -18 14 0 6 5 7 10 4 6 -3 10 -1 10 4 0 6 -5 11 -11 11 -5 0 -7 6 -3 13
6 9 4 9 -8 -1 -14 -11 -16 -9 -14 12 1 18 4 22 14 14 21 -18 13 0 -10 22 -15
14 -17 19 -7 15 10 -4 20 -1 24 5 3 6 1 9 -6 8 -6 -2 -14 3 -16 10 -3 8 2 10
14 6 16 -5 16 -4 -2 11 -20 17 -20 17 3 12 12 -3 20 -1 16 4 -3 5 -12 9 -20 9
-15 0 -19 12 -6 24 12 12 8 30 -8 46 -9 8 -11 12 -4 7 8 -5 11 1 11 18 1 14
-4 22 -10 18 -6 -3 -7 -1 -3 6 4 6 11 9 16 6 4 -3 10 4 13 16 4 16 3 18 -9 8
-9 -7 -14 -8 -14 -1 0 6 5 14 10 17 15 9 12 27 -2 20 -7 -4 -5 0 5 8 10 9 14
18 9 21 -12 7 -4 46 10 46 5 0 6 -5 2 -12 -4 -6 -3 -8 3 -5 5 3 8 20 5 38 -3
18 -1 29 4 26 5 -3 10 6 10 19 1 15 -2 22 -10 18 -6 -3 -2 2 9 11 11 9 20 20
20 26 0 5 7 14 15 20 12 8 9 9 -10 5 -14 -3 -19 -3 -12 0 6 3 9 10 6 15 -3 6
6 8 22 5 20 -4 24 -2 16 6 -9 9 -8 15 1 26 9 12 9 16 0 19 -10 4 -10 7 0 18 7
7 15 11 19 9 4 -3 5 5 3 16 -2 13 1 20 11 20 9 0 12 5 8 12 -5 8 0 9 14 6 12
-4 25 -1 29 4 3 6 1 8 -4 5 -18 -11 -22 18 -6 38 13 16 14 17 10 3 -3 -10 -2
-20 4 -23 5 -4 8 -3 7 2 -5 15 22 74 31 69 5 -3 15 2 22 11 8 10 9 14 2 10 -6
-4 -14 -3 -17 2 -4 5 5 8 18 7 15 -2 23 2 22 12 0 8 5 17 12 19 8 3 10 -2 6
-14 -5 -14 -4 -15 4 -3 7 9 7 19 2 26 -14 16 0 26 17 12 8 -6 13 -7 12 -2 -4
23 2 45 11 39 14 -9 12 8 -2 25 -7 8 -3 6 10 -5 22 -18 23 -18 16 0 -5 12 -4
16 4 11 8 -5 10 -1 5 10 -5 13 -3 16 10 11 10 -4 23 3 35 18 11 13 23 21 27
17 5 -4 5 2 1 13 -4 11 -4 16 0 12 4 -4 16 1 27 10 11 10 17 12 13 6 -4 -7 -4
-13 1 -14 43 -5 61 -5 57 3 -3 4 -2 8 3 9 4 0 19 2 32 3 14 2 27 8 29 15 2 6
8 9 13 5 5 -3 9 2 9 10 0 14 35 33 53 28 4 -1 7 3 7 9 0 5 5 7 10 4 6 -3 13 1
16 9 3 9 8 16 11 16 3 0 2 -7 -1 -16z m3432 -13 c0 -3 1 -8 2 -11 7 -19 5 -50
-6 -54 -7 -3 -10 2 -7 15 3 11 2 19 -3 18 -27 -5 -34 1 -23 19 11 17 39 27 37
13z m109 -7 c-3 -3 -12 -4 -19 -1 -8 3 -5 6 6 6 11 1 17 -2 13 -5z m-3676 -47
c-13 -13 -26 -3 -16 12 3 6 11 8 17 5 6 -4 6 -10 -1 -17z m-64 -10 c0 -8 -6
-14 -14 -14 -9 0 -10 4 -2 14 6 7 12 13 14 13 1 0 2 -6 2 -13z m3677 -43 c3
-8 2 -12 -4 -9 -6 3 -10 10 -10 16 0 14 7 11 14 -7z m-3784 -8 c0 -2 -8 -10
-17 -17 -16 -13 -17 -12 -4 4 13 16 21 21 21 13z m-670 -153 c0 -3 -7 -2 -16
1 -13 5 -15 2 -11 -14 4 -18 3 -19 -9 -9 -10 8 -11 15 -3 25 9 11 39 9 39 -3z
m-50 -87 c0 -2 -7 -9 -15 -16 -13 -11 -14 -10 -9 4 5 14 24 23 24 12z m4724
-92 c3 -8 2 -12 -4 -9 -6 3 -10 10 -10 16 0 14 7 11 14 -7z m-4785 -7 c8 -10
7 -14 -2 -14 -8 0 -14 6 -14 14 0 7 1 13 2 13 2 0 8 -6 14 -13z m451 -62 c-5
-6 -8 -15 -5 -18 3 -4 2 -5 -2 -2 -13 10 -10 43 4 38 9 -4 10 -9 3 -18z m-380
-765 c0 -5 -5 -10 -11 -10 -5 0 -7 5 -4 10 3 6 8 10 11 10 2 0 4 -4 4 -10z
m404 -158 c3 -5 -1 -9 -9 -9 -8 0 -12 4 -9 9 3 4 7 8 9 8 2 0 6 -4 9 -8z
m-279 -102 c-3 -5 -12 -10 -18 -10 -7 0 -6 4 3 10 19 12 23 12 15 0z m3035
-1784 c0 -3 -4 -8 -10 -11 -5 -3 -10 -1 -10 4 0 6 5 11 10 11 6 0 10 -2 10 -4z
m-204 -32 c-5 -14 -4 -15 8 -5 13 11 15 9 11 -8 -2 -11 1 -24 7 -27 7 -5 8 -2
3 6 -6 9 -4 11 5 5 10 -6 9 -11 -5 -21 -18 -14 -40 -9 -30 6 3 4 -1 10 -9 13
-10 4 -12 0 -9 -14 3 -11 0 -19 -6 -19 -7 0 -9 4 -6 10 3 5 1 19 -6 31 -10 19
-9 21 5 16 10 -4 19 -1 22 8 4 8 8 15 11 15 3 0 2 -7 -1 -16z m-121 -112 c-3
-3 -11 0 -18 7 -9 10 -8 11 6 5 10 -3 15 -9 12 -12z m52 -57 c0 -8 -4 -12 -9
-9 -5 3 -6 10 -3 15 9 13 12 11 12 -6z"/>
<path d="M3680 4289 c-13 -9 -13 -10 0 -6 8 2 22 -2 31 -9 13 -12 16 -12 16 1
0 8 -3 13 -5 10 -3 -3 -10 -1 -16 5 -7 5 -17 5 -26 -1z"/>
<path d="M3745 4240 c3 -5 8 -10 11 -10 2 0 4 5 4 10 0 6 -5 10 -11 10 -5 0
-7 -4 -4 -10z"/>
<path d="M1065 3690 c-3 -6 1 -7 9 -4 18 7 21 14 7 14 -6 0 -13 -4 -16 -10z"/>
<path d="M885 3629 c-4 -6 -4 -13 -1 -16 3 -4 6 -1 6 6 0 7 5 9 12 5 7 -4 8
-3 4 4 -9 15 -13 15 -21 1z"/>
<path d="M695 2980 c-3 -5 -2 -10 4 -10 5 0 13 5 16 10 3 6 2 10 -4 10 -5 0
-13 -4 -16 -10z"/>
<path d="M601 2166 c-9 -10 -7 -17 6 -27 16 -12 17 -12 6 2 -10 12 -10 18 -1
27 7 7 9 12 6 12 -3 0 -11 -6 -17 -14z"/>
<path d="M4550 3702 c0 -5 7 -9 15 -9 8 0 12 4 9 9 -3 4 -9 8 -15 8 -5 0 -9
-4 -9 -8z"/>
<path d="M4016 4659 c3 -5 9 -7 14 -4 4 3 11 0 13 -5 3 -6 4 -5 3 1 -1 7 -10
13 -19 15 -9 1 -15 -2 -11 -7z"/>
<path d="M4140 4586 c0 -3 9 -10 20 -16 11 -6 20 -8 20 -6 0 3 -9 10 -20 16
-11 6 -20 8 -20 6z"/>
<path d="M4446 4313 c-6 -14 -5 -15 5 -6 7 7 10 15 7 18 -3 3 -9 -2 -12 -12z"/>
<path d="M1656 4113 c-6 -14 -5 -15 5 -6 7 7 10 15 7 18 -3 3 -9 -2 -12 -12z"/>
<path d="M1000 4079 c0 -5 5 -7 10 -4 6 3 10 8 10 11 0 2 -4 4 -10 4 -5 0 -10
-5 -10 -11z"/>
<path d="M866 4052 c-3 -5 1 -9 9 -9 8 0 12 4 9 9 -3 4 -7 8 -9 8 -2 0 -6 -4
-9 -8z"/>
<path d="M4635 3929 c-4 -6 -5 -12 -2 -15 2 -3 7 2 10 11 7 17 1 20 -8 4z"/>
<path d="M517 3907 c4 -6 0 -8 -10 -4 -11 4 -14 2 -10 -9 5 -13 8 -13 24 2 23
21 23 21 4 21 -8 0 -11 -5 -8 -10z"/>
<path d="M4650 3911 c0 -6 4 -13 10 -16 6 -3 7 1 4 9 -7 18 -14 21 -14 7z"/>
<path d="M55 3340 c-3 -5 -1 -10 5 -10 6 0 8 -5 5 -10 -4 -6 -11 -7 -17 -4 -7
4 -8 2 -4 -5 11 -17 37 6 29 25 -6 17 -10 17 -18 4z"/>
<path d="M710 1621 c0 -6 4 -13 10 -16 6 -3 7 1 4 9 -7 18 -14 21 -14 7z"/>
<path d="M3815 549 c-4 -6 -5 -12 -2 -15 2 -3 7 2 10 11 7 17 1 20 -8 4z"/>
<path d="M3164 100 c0 -13 4 -16 10 -10 7 7 7 13 0 20 -6 6 -10 3 -10 -10z"/>
<path d="M3130 40 c0 -3 10 -11 23 -19 20 -13 21 -13 9 2 -11 13 -10 16 5 20
10 3 6 4 -9 4 -16 -1 -28 -4 -28 -7z"/>
</g>
</svg>
